<svg xmlns="http://www.w3.org/2000/svg" xmlns:xlink="http://www.w3.org/1999/xlink" width="921.999" height="727" viewBox="0 0 921.999 727">
  <defs>
    <linearGradient id="linear-gradient" x1="0.495" y1="1.05" x2="0.527" y2="0.183" gradientUnits="objectBoundingBox">
      <stop offset="0" stop-color="#31d1d6"/>
      <stop offset="0.373" stop-color="#32ced8"/>
      <stop offset="0.617" stop-color="#35c5de"/>
      <stop offset="0.824" stop-color="#3cb6ea"/>
      <stop offset="1" stop-color="#45a3fa"/>
    </linearGradient>
    <linearGradient id="linear-gradient-3" x1="0.5" y1="1.009" x2="0.5" y2="0.465" gradientUnits="objectBoundingBox">
      <stop offset="0" stop-color="#f9e6d9"/>
      <stop offset="0.121" stop-color="#fbf1ea"/>
      <stop offset="0.27" stop-color="#fdf9f6"/>
      <stop offset="0.475" stop-color="#fefdfd"/>
      <stop offset="1" stop-color="#fff"/>
    </linearGradient>
    <linearGradient id="linear-gradient-4" x1="0.497" y1="1.082" x2="0.509" y2="0.559" xlink:href="#linear-gradient-3"/>
    <linearGradient id="linear-gradient-5" x1="0" y1="0.5" x2="1" y2="0.5" xlink:href="#linear-gradient"/>
    <linearGradient id="linear-gradient-6" x1="0.509" y1="1.066" x2="0.5" y2="0.689" xlink:href="#linear-gradient-3"/>
    <linearGradient id="linear-gradient-7" x1="-0.057" y1="0.554" x2="0.913" y2="0.554" xlink:href="#linear-gradient"/>
    <linearGradient id="linear-gradient-8" x1="0.506" y1="1.034" x2="0.496" y2="0.634" xlink:href="#linear-gradient-3"/>
    <linearGradient id="linear-gradient-9" x1="0.456" y1="0.516" x2="0.83" y2="0.457" xlink:href="#linear-gradient"/>
    <linearGradient id="linear-gradient-11" y1="0.5" x2="1" y2="0.5" gradientUnits="objectBoundingBox">
      <stop offset="0" stop-color="#51adc6"/>
      <stop offset="0.006" stop-color="#54aec4"/>
      <stop offset="0.066" stop-color="#74beb4"/>
      <stop offset="0.133" stop-color="#8ecca7"/>
      <stop offset="0.21" stop-color="#a4d79c"/>
      <stop offset="0.3" stop-color="#b5e094"/>
      <stop offset="0.411" stop-color="#c1e68e"/>
      <stop offset="0.567" stop-color="#c8ea8a"/>
      <stop offset="1" stop-color="#caeb8a"/>
    </linearGradient>
    <linearGradient id="linear-gradient-12" x1="1" y1="0.5" x2="0" y2="0.5" gradientUnits="objectBoundingBox">
      <stop offset="0" stop-color="#8aebd6"/>
      <stop offset="0.461" stop-color="#88e9d6"/>
      <stop offset="0.628" stop-color="#84e2d9"/>
      <stop offset="0.746" stop-color="#7cd6de"/>
      <stop offset="0.842" stop-color="#71c5e5"/>
      <stop offset="0.923" stop-color="#63afee"/>
      <stop offset="0.994" stop-color="#5295f9"/>
      <stop offset="1" stop-color="#5193fa"/>
    </linearGradient>
    <linearGradient id="linear-gradient-13" x1="1" y1="0.5" x2="0" y2="0.5" xlink:href="#linear-gradient"/>
    <linearGradient id="linear-gradient-14" x1="1" y1="0.5" x2="0" y2="0.5" xlink:href="#linear-gradient-12"/>
    <linearGradient id="linear-gradient-16" y1="0.5" x2="1" y2="0.5" gradientUnits="objectBoundingBox">
      <stop offset="0" stop-color="#f7be86"/>
      <stop offset="0.329" stop-color="#f7bc83"/>
      <stop offset="0.545" stop-color="#f7b67a"/>
      <stop offset="0.728" stop-color="#f7ac6b"/>
      <stop offset="0.891" stop-color="#f79e56"/>
      <stop offset="1" stop-color="#f79244"/>
    </linearGradient>
    <linearGradient id="linear-gradient-17" x1="0.51" y1="0.112" x2="0.432" y2="3.099" gradientUnits="objectBoundingBox">
      <stop offset="0" stop-color="#7b6ed6"/>
      <stop offset="0.48" stop-color="#796cd4"/>
      <stop offset="0.653" stop-color="#7268d0"/>
      <stop offset="0.777" stop-color="#6660c8"/>
      <stop offset="0.877" stop-color="#5555be"/>
      <stop offset="0.961" stop-color="#3f46b0"/>
      <stop offset="1" stop-color="#333ea8"/>
    </linearGradient>
    <linearGradient id="linear-gradient-18" x1="0.505" y1="0.124" x2="0.484" y2="1.068" xlink:href="#linear-gradient-17"/>
    <linearGradient id="linear-gradient-19" x1="0.509" y1="-0.031" x2="0.49" y2="1.089" xlink:href="#linear-gradient-17"/>
    <linearGradient id="linear-gradient-20" x1="0" y1="0.5" x2="1" y2="0.5" xlink:href="#linear-gradient-17"/>
    <linearGradient id="linear-gradient-22" y1="0.5" x2="1" y2="0.5" gradientUnits="objectBoundingBox">
      <stop offset="0" stop-color="#3c0887"/>
      <stop offset="0.323" stop-color="#3e0987"/>
      <stop offset="0.534" stop-color="#470d87"/>
      <stop offset="0.713" stop-color="#561488"/>
      <stop offset="0.873" stop-color="#6b1f89"/>
      <stop offset="1" stop-color="#822a8a"/>
    </linearGradient>
    <linearGradient id="linear-gradient-24" x1="0.497" y1="1.036" x2="0.5" y2="0.053" xlink:href="#linear-gradient-12"/>
    <linearGradient id="linear-gradient-25" x1="0.5" y1="3.297" x2="0.5" y2="-0.5" xlink:href="#linear-gradient-12"/>
    <linearGradient id="linear-gradient-26" x1="0.5" y1="3.61" x2="0.5" y2="-1.384" xlink:href="#linear-gradient-12"/>
    <linearGradient id="linear-gradient-27" x1="0.14" y1="0.542" x2="1.098" y2="0.542" xlink:href="#linear-gradient"/>
    <linearGradient id="linear-gradient-28" x1="0.507" y1="1.067" x2="0.497" y2="0.553" xlink:href="#linear-gradient-3"/>
  </defs>
  <g id="illustration" transform="translate(-248.788 -76.678)">
    <g id="Group_1" data-name="Group 1">
      <path id="Path_1" data-name="Path 1" d="M365.143,668.2H273.064c-24.638-25.606-31.229-66.409-16.511-98.759,14.029-30.837,44.149-51.208,62.4-79.748C357.9,428.781,339.074,338.042,392,288.8c26.456-24.611,64.5-31.73,100.512-34.607s73.232-2.8,106.536-16.8c41.07-17.268,72.029-54.359,114.332-68.335,47.5-15.693,104.322,3.89,132.081,45.522,17.368,26.049,23.923,58.778,44.464,82.407,33.214,38.207,91.729,41.172,133.153,70.267a123.869,123.869,0,0,1,51.257,87.08c4.421,41.7-11.4,89.061,13.589,122.725,12.187,16.414,31.946,25.668,45.078,41.339,13.085,15.613,16.769,29.841,12.652,49.8Z" opacity="0.37" fill="url(#linear-gradient)" style="mix-blend-mode: darken;isolation: isolate"/>
      <path id="Path_2" data-name="Path 2" d="M388.675,668.2H296.6c-24.64-25.606-31.231-66.409-16.513-98.759,14.029-30.837,44.151-51.208,62.4-79.748,38.947-60.907,20.122-151.647,73.048-200.885,26.456-24.611,64.5-31.73,100.512-34.607s73.232-2.8,106.538-16.8c41.07-17.268,72.029-54.359,114.33-68.335,47.5-15.693,104.324,3.89,132.081,45.522,17.37,26.049,23.923,58.778,44.464,82.407,33.214,38.207,91.729,41.172,133.154,70.267a123.867,123.867,0,0,1,51.255,87.08c4.421,41.7-11.4,89.061,13.589,122.725,12.187,16.414,31.946,25.668,45.078,41.339,13.085,15.613,16.769,29.841,12.652,49.8Z" opacity="0.37" fill="url(#linear-gradient)" style="mix-blend-mode: darken;isolation: isolate"/>
    </g>
    <path id="Path_3" data-name="Path 3" d="M600.593,352.769l-3.792.125H254.374l-.823.107c-3.4-22.723,14.38-45.8,36.754-51.924,19.566-5.35,42.459-.59,58.842-12.56,14.684-10.718,18.332-30.757,27.937-46.2a65.4,65.4,0,0,1,24.449-22.974c12.484-6.71,28.062-9.054,40.867-2.988,22.678,10.771,27.024,40.83,42.191,60.852,3.38,4.473,7.637,8.642,13.056,10.127,4.99,1.378,10.284.3,15.4-.608,16.758-2.952,36.861-2.684,47.288,10.771,4.9,6.334,6.653,14.457,9.372,21.972,2.719,7.533,7.172,15.262,14.7,17.964,3.613,1.27,7.708,1.306,10.892,3.435C599.127,343.43,600.361,347.992,600.593,352.769Z" fill="url(#linear-gradient-3)"/>
    <path id="Path_4" data-name="Path 4" d="M1151.391,396.028H752.071c-3.184-4.187-3.577-10.664-1.306-15.638,2.951-6.531,9.1-10.968,15.238-14.654,6.135-3.7,12.663-7.1,17.259-12.6,8.817-10.539,8.3-25.658,10.248-39.256,2.289-16.139,9.05-32.117,21.247-42.942a66.461,66.461,0,0,1,16.293-10.413c16.723-7.783,37.433-9.733,53.065.072,14.952,9.376,22.285,27.214,35.323,39.113,3.076,2.827,6.6,5.35,10.677,6.3,11.679,2.684,21.605-7.908,30.369-16.085,12.448-11.612,29.081-20.29,45.965-18.125,19.852,2.577,35.2,19.61,42.727,38.164,3.148,7.73,5.544,16.282,11.8,21.775,16.061,14.081,43.175-1.7,61.9,8.535,7.029,3.847,11.733,10.843,15.489,17.928A129.427,129.427,0,0,1,1151.391,396.028Z" fill="url(#linear-gradient-4)"/>
    <g id="Group_2" data-name="Group 2">
      <path id="Path_5" data-name="Path 5" d="M592.7,617.664H563.97V668.18H494.383V617.664H390.356V565.9L498.843,407.207H563.97V565H592.7ZM494.383,565V534.66q0-8.57.624-23.117t.982-15.262h-1.962a188.568,188.568,0,0,1-13.739,25.7L451.382,565Z" fill="url(#linear-gradient-5)"/>
      <path id="Path_6" data-name="Path 6" d="M573.694,617.678H544.967V668.2H475.378V617.678H371.353V565.912L479.839,407.223h65.128v157.8h28.727Zm-98.316-52.657V534.676q0-8.57.624-23.117t.982-15.262h-1.962A188.678,188.678,0,0,1,461.283,522l-28.906,43.02Z" fill="url(#linear-gradient-6)"/>
    </g>
    <g id="Group_3" data-name="Group 3">
      <path id="Path_7" data-name="Path 7" d="M1046.8,619.414l-10-51.709-18.654,3.614-9.551,1.843-29.94-154.93L914.7,430.614l-76.387,176.4,9.819,50.832,102.142-19.771,5.813,30.113h70.879l-8.37-43.317,9.551-1.843ZM921.625,590l-23.555,4.545,16.812-39.685,3.4-8.034a189.365,189.365,0,0,0,8.6-27.858l1.932-.358q-.215.751,1.932,15.173,2.146,14.385,3.774,22.813l5.759,29.791Z" fill="url(#linear-gradient-7)"/>
      <path id="Path_8" data-name="Path 8" d="M1028.148,623.028l-10-51.691-28.2,5.457-29.957-154.93L914.7,430.614l-18.654,3.614L819.662,610.647l9.819,50.814,18.654-3.614,83.487-16.139,5.115,26.481h70.878l-7.673-39.7,18.654-3.614Zm-113.266-68.17c.34,1.95.68,3.722.984,5.35L921.625,590,879.4,598.176l20.228-47.737a188.468,188.468,0,0,0,8.6-27.84l1.932-.376q-.215.778,1.932,15.173C913.112,544.23,914.042,550.063,914.882,554.858Z" fill="url(#linear-gradient-8)"/>
    </g>
    <g id="Group_8" data-name="Group 8">
      <g id="Group_4" data-name="Group 4">
        <path id="Path_9" data-name="Path 9" d="M602.412,535.821l-42.486,0-26.99-197.693s-39-42.618-83.763-50.6l42.638-4.6,96.1,2.612Z" fill="url(#linear-gradient-9)"/>
        <path id="Path_10" data-name="Path 10" d="M434.734,427.141s-24.141,35.346-13.425,65.7l44.913-65.7L460.39,419.3Z" fill="#111023"/>
        <path id="Path_11" data-name="Path 11" d="M559.926,535.819l-1.447,9.127s-12.8,1.791-13.512,20.075h33.286l18.087-17.663,1.688-11.539Z" fill="#111023"/>
        <path id="Path_12" data-name="Path 12" d="M508.533,337.985,455.29,336l8.653,81.57-36.089,12.938-20.8-100.734a31.126,31.126,0,0,1,26.237-40.526l15.864-1.718h.018c44.766,7.98,83.763,50.6,83.763,50.6Z" fill="url(#linear-gradient-5)"/>
      </g>
      <g id="Group_5" data-name="Group 5">
        <path id="Path_13" data-name="Path 13" d="M410.487,110.312v2.371l-2.887.37a11.248,11.248,0,0,0-2.321-3.564c-3.854-3.324-6.532-5.937-9.29-4.341-2.08,1.211-1.919,6.9-1.724,9.6l-7.853,1-69.566,8.825-.032-.129c4.514-1.065,8.014-9.163,8.014-19,0-9.712-3.4-17.713-7.821-18.971l93.48,10.549v13.294Z" fill="url(#linear-gradient-11)"/>
        <path id="Path_14" data-name="Path 14" d="M322.022,91.566a9.7,9.7,0,0,0-.533.887c-1,1.934-1.467,4.146-2.708,5.921a8.018,8.018,0,0,1-3.693,2.918,21.117,21.117,0,0,1-4.951.936,11.475,11.475,0,0,0-3.275.839c.533-9.292,4.194-16.518,8.692-16.762l1.452.163C318.943,87.016,320.683,88.855,322.022,91.566Z" fill="url(#linear-gradient-12)"/>
        <path id="Path_15" data-name="Path 15" d="M324.8,103.874c-.032.032-.048.064-.082.1-1.145,1.533-1.692,3.453-2.756,5.033a9.014,9.014,0,0,1-5.4,3.711c-2.016.451-4.192.209-6.031,1.129a5.916,5.916,0,0,0-2.257,2.113,35.984,35.984,0,0,1-1.484-10.517c0-.807.016-1.6.08-2.373a11.475,11.475,0,0,1,3.275-.839,21.117,21.117,0,0,0,4.951-.936,8.018,8.018,0,0,0,3.693-2.918c1.241-1.775,1.708-3.986,2.708-5.921a9.7,9.7,0,0,1,.533-.887A30.993,30.993,0,0,1,324.8,103.874Z" fill="url(#linear-gradient-13)"/>
        <path id="Path_16" data-name="Path 16" d="M324.829,105.44c0,9.841-3.5,17.939-8.014,19a4.3,4.3,0,0,1-1.016.129c-3.146,0-5.918-3.421-7.531-8.615a5.916,5.916,0,0,1,2.257-2.113c1.839-.92,4.015-.678,6.031-1.129a9.014,9.014,0,0,0,5.4-3.711c1.064-1.58,1.611-3.5,2.756-5.033.034-.032.05-.064.082-.1C324.813,104.391,324.829,104.906,324.829,105.44Z" fill="url(#linear-gradient-14)"/>
        <path id="Path_17" data-name="Path 17" d="M465.572,100.761H493.7a23.766,23.766,0,0,0-6.564,3.582c-.887.821-.5,2.322.6,4.242H465.572Z" fill="#111023"/>
        <path id="Path_18" data-name="Path 18" d="M527.9,105.472v3.113H512.659a57.272,57.272,0,0,1-2.935-7.824H527.9Z" fill="#111023"/>
        <path id="Path_19" data-name="Path 19" d="M465.572,108.585v1.726H410.487V98.905h55.085v9.679Z" fill="url(#linear-gradient-5)"/>
        <path id="Path_20" data-name="Path 20" d="M412.664,129.8l-12.126,9.227s-14.723-15.438-14.126-23.278l7.853-1c-.195-2.695-.356-8.388,1.724-9.6,2.758-1.6,5.435,1.016,9.29,4.341a11.248,11.248,0,0,1,2.321,3.564C410.439,119.134,412.664,129.8,412.664,129.8Z" fill="url(#linear-gradient-16)"/>
        <path id="Path_21" data-name="Path 21" d="M331.065,86.538c-.81-1.775-3.43-.259-2.627,1.5a35.843,35.843,0,0,1-1.629,33.312,1.513,1.513,0,0,0,2.62,1.512A39.054,39.054,0,0,0,331.065,86.538Z" fill="#5b2b89"/>
      </g>
      <g id="Group_6" data-name="Group 6">
        <path id="Path_22" data-name="Path 22" d="M547.039,141.978v9.357l-11.191-10.583Z" fill="url(#linear-gradient-17)"/>
        <path id="Path_23" data-name="Path 23" d="M547.038,151.335l11.273,10.648,10.756,10.163s24.638-17.263,34.2-17.407a11.04,11.04,0,0,1,1.951.129c8.435,1.2,13.594,10.954,12.11,20.311-1.6,10.082-1.306,21.245-11.014,23.053-9.708,1.823-52.473,12.2-52.473,12.2L507.031,146.9l5.516-3.856,12.287-8.6,2.484-1.743,5.4,5.1,3.128,2.952Z" fill="url(#linear-gradient-18)"/>
        <path id="Path_24" data-name="Path 24" d="M577.259,143.93l27.962,10.938a11.04,11.04,0,0,0-1.951-.129c-9.563.145-34.2,17.407-34.2,17.407l-10.756-10.163Z" fill="url(#linear-gradient-19)"/>
        <path id="Path_25" data-name="Path 25" d="M606.316,198.231l-16.238,44.235L587.9,285.539s-1.9.338-5.21.807c-15.479,2.21-61.873,7.5-90.883-3.421l11.3-53.511-5.224-42.2-63.052,6.969-39.571-51.14,5.273-4.017,12.126-9.227,37.4,36.54,58.52-25.586a21.739,21.739,0,0,0,3.967,2.29l-5.516,3.856,46.812,63.529S596.608,200.054,606.316,198.231Z" fill="url(#linear-gradient-20)"/>
        <path id="Path_26" data-name="Path 26" d="M524.834,134.445l-12.287,8.6a21.739,21.739,0,0,1-3.967-2.29c-2.774-1.984-6.047-5.259-6.451-9.873-.531-6.194-10.981-16.277-14.4-22.294-1.1-1.92-1.484-3.421-.6-4.244a23.819,23.819,0,0,1,6.564-3.58c6.5-2.582,15.158-4.339,15.948-.322a3.137,3.137,0,0,0,.081.322,57.272,57.272,0,0,0,2.935,7.824C517.109,118.973,524.834,134.445,524.834,134.445Z" fill="url(#linear-gradient-16)"/>
        <path id="Path_27" data-name="Path 27" d="M590.079,242.467c-71.626-15.2-83.048-95.568-83.048-95.568l46.814,63.575,52.471-12.242Z" opacity="0.38" fill="url(#linear-gradient-22)" style="mix-blend-mode: overlay;isolation: isolate"/>
      </g>
      <g id="Group_7" data-name="Group 7">
        <path id="Path_28" data-name="Path 28" d="M576.856,104.874c1.515-.419,3.048-.113,3.659,2.306,1.42,5.534-4.79,12.181-4.79,12.181l1.533,24.568-18.947,18.053,7.417-21.231-18.69,1.226-11.191-1.226-3.128-2.952s-2.177-20.374-2.177-32.328a38.7,38.7,0,0,1,.4-6.567l.1-.581c13.1,2.211,31.268-2.9,31.268-2.9s2.547,24.811,6.031,25.246c3.482.419,4.564-13.487,4.564-13.487A11.885,11.885,0,0,1,576.856,104.874Z" fill="url(#linear-gradient-16)"/>
        <path id="Path_29" data-name="Path 29" d="M577,86.839l-.145,18.035a11.885,11.885,0,0,0-3.951,2.306s-1.082,13.906-4.564,13.487c-3.484-.435-6.031-25.246-6.031-25.246s-18.173,5.114-31.268,2.9v-.016c-4.112-.676-7.707-2.1-10.094-4.613-10.014-10.551-6.53-16.536,7.821-13.278S572.873,66.4,577,86.839Z" fill="#111023"/>
        <path id="Path_30" data-name="Path 30" d="M565.729,140.752l-7.418,21.23-11.272-10.647v-9.357Z" fill="#f79244"/>
        <path id="Path_31" data-name="Path 31" d="M529.792,101.6a10.919,10.919,0,0,1,8.91-.528c1.851.667.456,3.392-1.374,2.732a7.514,7.514,0,0,0-5.872.36C529.718,105.035,528.033,102.48,529.792,101.6Z" fill="#111023"/>
        <ellipse id="Ellipse_1" data-name="Ellipse 1" cx="2.198" cy="3.264" rx="2.198" ry="3.264" transform="matrix(0.999, -0.052, 0.052, 0.999, 555.244, 105.707)" fill="#111023"/>
        <path id="Path_32" data-name="Path 32" d="M561.445,100.866a10.917,10.917,0,0,0-8.916.4c-1.772.857-.1,3.421,1.651,2.575a7.521,7.521,0,0,1,5.877-.256C561.877,104.277,563.285,101.561,561.445,100.866Z" fill="#111023"/>
        <path id="Path_33" data-name="Path 33" d="M540.224,118.947c.977-4.623,3.366-9.329,4.979-13.774.336-.925,1.7-.227,1.366.687l-3.053,8.406a19.094,19.094,0,0,0-1.309,3.6c-.333,3.491,1.263,3.217,3.069,4.058.894.417.2,1.78-.687,1.367C542.37,122.259,539.553,122.119,540.224,118.947Z" fill="#f79244"/>
        <path id="Path_34" data-name="Path 34" d="M538.537,109.236a9.652,9.652,0,0,0-4.883-2.144c-1.125-.145-1.592,1.585-.451,1.732a8.437,8.437,0,0,1,2.615.777q-1.433.464-2.862.93c-1.093.354-.635,2.084.461,1.728l4.713-1.532C538.706,110.543,539.1,109.687,538.537,109.236Z" fill="#111023"/>
        <ellipse id="Ellipse_2" data-name="Ellipse 2" cx="3.979" cy="5.75" rx="3.979" ry="5.75" transform="translate(541.952 126.841)" fill="#fff"/>
      </g>
    </g>
    <g id="Group_9" data-name="Group 9">
      <path id="Path_35" data-name="Path 35" d="M1094.125,668.2H376.47s-38.614,25.647,18.8,29.988,146.951,8.445,144.742,27.985-54.056,15.681-54.056,50.179,239.125,26.536,239.125,26.536,135.084,1.77,154.321-21.068-54.456-43.745-41.082-52.752,110.476,18.012,124.945-3.859-2.894-35.7,23.794-38.6S1089.623,694.175,1094.125,668.2Z" opacity="0.5" fill="url(#linear-gradient-24)" style="mix-blend-mode: multiply;isolation: isolate"/>
      <ellipse id="Ellipse_3" data-name="Ellipse 3" cx="54.258" cy="15.44" rx="54.258" ry="15.44" transform="translate(985.608 698.184)" fill="url(#linear-gradient-25)"/>
      <ellipse id="Ellipse_4" data-name="Ellipse 4" cx="47.426" cy="11.741" rx="47.426" ry="11.741" transform="translate(414.733 715.232)" fill="url(#linear-gradient-26)"/>
      <ellipse id="Ellipse_5" data-name="Ellipse 5" cx="53.865" cy="10.374" rx="53.865" ry="10.374" transform="translate(680.137 762.355)" fill="#e9fdff"/>
    </g>
    <g id="Group_12" data-name="Group 12">
      <g id="Group_10" data-name="Group 10">
        <path id="Path_36" data-name="Path 36" d="M805.247,530.131Q788.667,492.208,743.06,482.9q-4.963-1.02-9.712-1.61-40.241-5.1-66.371,19.216-29.242,27.161-43.175,95.384-8.531,41.788-4.757,72.3h66.461q-1.261-17.821,7.011-58.258,8.934-43.72,17.706-59.063,5.1-8.91,11.536-11.755a16.066,16.066,0,0,1,10-.966q12.77,2.63,14.7,20.773,1.932,18.17-6.743,60.655-6.519,31.857-13.074,48.614h72.864a320.7,320.7,0,0,0,8.907-34.568q2.549-12.48,4.006-23.94Q818.67,560.834,805.247,530.131Z" fill="url(#linear-gradient-27)"/>
        <path id="Path_37" data-name="Path 37" d="M786.628,526.338q-14.889-34.058-53.28-45.053-4.319-1.235-8.925-2.183-46.841-9.581-76.083,17.606-29.215,27.187-43.157,95.384-2.844,13.875-4.31,26.534-3.246,27.778.072,49.562h66.372c-.089-.429-.143-.859-.2-1.306q-2.093-17.365,6.761-60.745,8.934-43.72,17.724-59.045,8.773-15.352,21.534-12.721a15.644,15.644,0,0,1,8.621,4.741c3.309,3.543,5.312,8.875,6.081,16.014q1.932,18.17-6.743,60.655-7.3,35.642-14.648,52.407h73.2a324.288,324.288,0,0,0,10.141-38.343Q803.181,564.252,786.628,526.338Z" fill="url(#linear-gradient-28)"/>
      </g>
      <g id="Group_11" data-name="Group 11">
        <path id="Path_38" data-name="Path 38" d="M837.361,355.825l-.447.34L790.18,392.558,761.01,415.264,736.722,482.5l-6.743-2.433L755,410.88l77.979-60.709Z" fill="#2a2a2a"/>
      </g>
      <path id="Path_39" data-name="Path 39" d="M859.753,506.73c-5.312,6.316-12.555,10.646-19.656,14.851l-.483-.841c2.808-3.6,5.777-7.819,4.936-12.31-.59-3.06-2.844-5.493-5.151-7.551-3.917-3.453-8.281-6.37-12.019-10s-6.9-8.195-7.512-13.366c-.787-6.8,2.879-13.222,4.31-19.914a13.479,13.479,0,0,0-.3-8.069c-2.4-5.69-9.64-7-15.381-9.286-5.133-2.076-9.962-5.922-11.393-11.272-2.075-7.765,3.452-15.71,2.7-23.707a15.769,15.769,0,0,0-9.622-12.7l46.734-36.393c7.923,6.871,14.755,15.978,14.845,26.373.036,6.584-2.629,12.847-4.525,19.145a17.1,17.1,0,0,0-.93,7.783c.733,3.972,3.9,6.978,6.814,9.787,6.027,5.779,12.09,12.811,11.983,21.167-.107,9.376-8.1,17.731-6.707,27,.894,5.922,5.455,10.646,7.279,16.336C868.177,491.628,865.065,500.414,859.753,506.73Z" fill="url(#linear-gradient-20)"/>
    </g>
  </g>
</svg>
